<svg xmlns="http://www.w3.org/2000/svg" xmlns:xlink="http://www.w3.org/1999/xlink" width="62.453" height="76.085" viewBox="0 0 62.453 76.085">
  <defs>
    <filter id="Icon_awesome-hand-pointer" x="13.444" y="26.35" width="49.009" height="49.735" filterUnits="userSpaceOnUse">
      <feOffset dy="3" input="SourceAlpha"/>
      <feGaussianBlur stdDeviation="3" result="blur"/>
      <feFlood flood-opacity="0.161"/>
      <feComposite operator="in" in2="blur"/>
      <feComposite in="SourceGraphic"/>
    </filter>
  </defs>
  <g id="Group_9780" data-name="Group 9780" transform="translate(-1050 -244.5)">
    <path id="Path_1328" data-name="Path 1328" d="M17.2,13.5H33.85c2.043,0,3.7,2.362,3.7,5.275V42.511c0,2.913-1.657,5.275-3.7,5.275H17.2c-2.043,0-3.7-2.362-3.7-5.275V18.775C13.5,15.862,15.157,13.5,17.2,13.5Z" transform="translate(1049.449 249.035)"/>
    <path id="Path_1329" data-name="Path 1329" d="M8.55,37.286H6.7c-2.043,0-3.7-2.362-3.7-5.275V8.275C3,5.362,4.657,3,6.7,3H23.35c2.043,0,3.7,2.362,3.7,5.275v2.637" transform="translate(1048 242.5)" fill="none" stroke="#000" stroke-linecap="round" stroke-linejoin="round" stroke-width="2"/>
    <g transform="matrix(1, 0, 0, 1, 1050, 244.5)" filter="url(#Icon_awesome-hand-pointer)">
      <path id="Icon_awesome-hand-pointer-2" data-name="Icon awesome-hand-pointer" d="M22.727,14.125v4.87a2.028,2.028,0,0,1-.054.465l-1.623,6.9a2.029,2.029,0,0,1-1.975,1.564H8.522a2.029,2.029,0,0,1-1.641-.836L.388,18.159A2.029,2.029,0,1,1,3.67,15.772L5.276,17.98,5.362,5.868a2.029,2.029,0,1,1,4.058,0l-.086,8.257H9.74V10.652a2.029,2.029,0,1,1,4.058,0v3.472H14.2v-2.66a2.029,2.029,0,0,1,2.029-2.029c1.121,0,2.029,2.351,2.029,3.472v1.217h.406a2.029,2.029,0,0,1,4.058,0ZM9.74,18.183H9.334v4.87H9.74Zm4.464,0H13.8v4.87H14.2Zm4.464,0h-.406v4.87h.406Z" transform="translate(21.91 37.16) rotate(-20)" fill="#fff" stroke="#000" stroke-width="1"/>
    </g>
  </g>
</svg>
