<svg xmlns="http://www.w3.org/2000/svg" xmlns:xlink="http://www.w3.org/1999/xlink" width="188.881" height="59" viewBox="0 0 188.881 59">
  <defs>
    <clipPath id="clip-path">
      <path id="path234" d="M226.509-157.216a10.321,10.321,0,0,0-7.568-3.3c-.085,0-.169,0-.255,0a10.31,10.31,0,0,0-7.3,3.278h-1.179l.029-.042a10.3,10.3,0,0,1,.7-.889q.243-.275.5-.532l.016-.016a10.193,10.193,0,0,1,7.156-2.92H230.4v4.411c-1.219-.012-.7-.024-1.922-.036l-1.659-.016-.309.065" transform="translate(-210.209 161.638)"/>
    </clipPath>
  </defs>
  <g id="Group_9866" data-name="Group 9866" transform="translate(-10018.739 -2596.773)">
    <path id="path16" d="M168.1-75.811a1.76,1.76,0,0,1,1.879-1.6H349.055a1.76,1.76,0,0,1,1.879,1.6,1.76,1.76,0,0,1-1.879,1.6H169.979a1.76,1.76,0,0,1-1.879-1.6" transform="translate(9853.945 2729.989)" fill="rgba(86,86,86,0.18)"/>
    <path id="path34" d="M608.974-155.922l-3.147,5.862-1.586,2.946h-30.2v-8.808h34.93" transform="translate(9532.307 2792.198)" fill="#425354"/>
    <path id="path36" d="M574.1-169.59v3.729a.662.662,0,0,0,.66.66h94.563a.663.663,0,0,0,.661-.66v-3.294" transform="translate(9532.263 2803.028)" fill="#313c3d"/>
    <path id="path38" d="M1046.923-169.59v3.729a.663.663,0,0,0,.661.66h1.74a.662.662,0,0,0,.661-.66v-3.294" transform="translate(9157.636 2803.028)" fill="#313c3d"/>
    <path id="path40" d="M434.612-162.789h-4.863l-2.148-3.034h9.158l-2.148,3.034" transform="translate(9648.336 2800.044)" fill="#313c3d"/>
    <path id="path42" d="M433.369-165.091H420.9l-.661-1.318h13.785l-.66,1.318" transform="translate(9654.166 2800.507)" fill="#313c3d"/>
    <path id="path44" d="M352.466-307.146a1.987,1.987,0,0,1-1.982-1.982v-31.05a1.987,1.987,0,0,1,1.982-1.982H494.79a1.987,1.987,0,0,1,1.982,1.982v31.05a1.987,1.987,0,0,1-1.982,1.982H352.466" transform="translate(9709.438 2939.758)" fill="#d8d9e5"/>
    <path id="path46" d="M411.475-297.857h-43.6a1.325,1.325,0,0,1-1.321-1.321v-26.9a1.325,1.325,0,0,1,1.321-1.321h55.985a.817.817,0,0,1,.81,1.218l-11.363,27.108a2.155,2.155,0,0,1-1.832,1.218" transform="translate(9696.706 2928.065)" fill="#c7c7d6"/>
    <path id="path48" d="M630.768-297.854h-8.461a.816.816,0,0,1-.81-1.218l11.363-27.109a2.155,2.155,0,0,1,1.832-1.218h8.461a.817.817,0,0,1,.811,1.218L632.6-299.072a2.156,2.156,0,0,1-1.832,1.218" transform="translate(9494.785 2928.063)" fill="#c7c7d6"/>
    <path id="path50" d="M795.225-297.854h-59.82a.816.816,0,0,1-.81-1.218l11.363-27.109a2.156,2.156,0,0,1,1.832-1.218h47.435a1.325,1.325,0,0,1,1.321,1.321v26.9a1.325,1.325,0,0,1-1.321,1.321" transform="translate(9405.175 2928.063)" fill="#c7c7d6"/>
    <path id="path52" d="M496.772-191.87H350.484v4.627H496.772v-4.627" transform="translate(9709.438 2820.681)" fill="#425354"/>
    <path id="path54" d="M1046.923-346.135h3.062v36.665h-3.062v-36.665" transform="translate(9157.636 2942.908)" fill="#425354"/>
    <path id="path56" d="M498.182-172.382h-147.7v-1.978h147.7v1.978" transform="translate(9709.438 2806.808)" fill="#425354"/>
    <path id="path58" d="M589.632-143.554a1.541,1.541,0,0,1-1.537,1.536h-19.81a1.541,1.541,0,0,1-1.537-1.536v-6.177a1.541,1.541,0,0,1,1.537-1.537H588.1a1.541,1.541,0,0,1,1.537,1.537v6.177" transform="translate(9538.087 2788.51)" fill="#add5d8"/>
    <path id="path60" d="M591.406-145.311H571.6a.67.67,0,0,1-.669-.669v-.442a.67.67,0,0,1,.669-.669h19.81a.67.67,0,0,1,.669.669v.442a.67.67,0,0,1-.669.669" transform="translate(9534.777 2785.201)" fill="#e0f0f1"/>
    <path id="path62" d="M567.22-116.989a1.531,1.531,0,0,1-.475-1.108v-1.041c0,.017,0,.034,0,.051v.99a1.533,1.533,0,0,0,.474,1.108" transform="translate(9538.09 2763.053)" fill="#d9d9d8"/>
    <path id="path64" d="M588.1-116.561h-19.81a1.533,1.533,0,0,1-1.062-.428,1.533,1.533,0,0,1-.474-1.108v-.99a1.542,1.542,0,0,0,1.537,1.485H588.1a1.54,1.54,0,0,0,1.535-1.536v1.041a1.54,1.54,0,0,1-1.535,1.536" transform="translate(9538.087 2763.053)" fill="#8fb1b6"/>
    <path id="path66" d="M687.187-163.143l-2.252,1.377-1.747-2.857-1.5-2.454-2.731-4.465,2.253-1.381,2.493,4.079,1.424,2.328,2.064,3.372" transform="translate(9449.186 2805.668)" fill="#425354"/>
    <path id="path68" d="M770.85-163.143l-2.256,1.377-1.5-2.448-1.529-2.5-2.223-3.633-2.361,3.858-1.892,3.091-1,1.629-2.253-1.377,1.549-2.53,1.668-2.731,2.764-4.518,1.522.932,1.519-.932,2.662,4.35,1.43,2.335,1.893,3.095" transform="translate(9388.265 2805.668)" fill="#425354"/>
    <path id="path70" d="M986.3-171.542l-2.9,4.743-1.846,3.015-1.235,2.018-2.256-1.377,1.711-2.8,1.651-2.7,2.623-4.283,2.252,1.381" transform="translate(9212.193 2805.668)" fill="#425354"/>
    <path id="path72" d="M881.012-163.143l-2.256,1.377-1.536-2.513-1.526-2.494-2.523-4.122-2.467,4.036-1.84,3-1.278,2.091-2.256-1.377,1.744-2.847,1.648-2.7,2.593-4.237,1.856,1.136,1.856-1.136,2.632,4.3,1.43,2.335,1.922,3.141" transform="translate(9301.515 2805.668)" fill="#425354"/>
    <path id="path74" d="M804.634-152.407a11.492,11.492,0,0,0-1.959,1.863l1.529,2.5a8.958,8.958,0,0,1,1.859-2.024l-1.43-2.335m14.446-.112-1.648,2.7a8.806,8.806,0,0,1,1.79,2.134l1.84-3a11.813,11.813,0,0,0-1.982-1.826" transform="translate(9351.158 2789.503)" fill="#313c3d"/>
    <path id="path76" d="M917.2-152.277a11.689,11.689,0,0,0-1.965,1.846l1.526,2.494a8.908,8.908,0,0,1,1.869-2l-1.43-2.335m14.446-.02-1.651,2.7a8.7,8.7,0,0,1,1.78,2.157l1.846-3.015a11.587,11.587,0,0,0-1.975-1.84" transform="translate(9261.976 2789.326)" fill="#313c3d"/>
    <path id="path78" d="M708.559-152.843l-1.668,2.731a8.816,8.816,0,0,1,1.7,2.279l1.892-3.091a11.635,11.635,0,0,0-1.926-1.919m-14.439-.439a11.659,11.659,0,0,0-2.015,1.767l1.5,2.454a8.913,8.913,0,0,1,1.935-1.892l-1.424-2.328" transform="translate(9438.766 2790.107)" fill="#313c3d"/>
    <path id="path80" d="M818.659-147.948a10.355,10.355,0,0,0-10.39-8.3,10.356,10.356,0,0,0-9.975,8.8,10.283,10.283,0,0,0-.111,1.789,10.324,10.324,0,0,0,.088,1.114l2.448-.059a7.674,7.674,0,0,1-.107-1.113,7.88,7.88,0,0,1,.16-1.79,7.911,7.911,0,0,1,7.556-6.307,7.912,7.912,0,0,1,7.854,5.933,7.865,7.865,0,0,1,.246,1.78,7.624,7.624,0,0,1-.053,1.117l2.448-.06a10.33,10.33,0,0,0,.034-1.117,10.261,10.261,0,0,0-.2-1.781" transform="translate(9354.719 2792.46)" fill="#425354"/>
    <path id="path82" d="M819.144-147.807a8.9,8.9,0,0,0-5.545-1.759,8.9,8.9,0,0,0-5.453,2.026,8.937,8.937,0,0,0-3.279,7.137,9.069,9.069,0,0,0,.1,1.114l2.1-.051a6.746,6.746,0,0,1-.119-1.113,6.876,6.876,0,0,1,6.7-7.031,6.875,6.875,0,0,1,7.034,6.7,6.718,6.718,0,0,1-.065,1.118l2.1-.051a9.045,9.045,0,0,0,.042-1.117,8.936,8.936,0,0,0-3.622-6.969" transform="translate(9349.423 2787.164)" fill="#201e1c"/>
    <path id="path84" d="M825.7-136.842a7.91,7.91,0,0,0-8.1-7.714,7.91,7.91,0,0,0-7.716,8.1,7.91,7.91,0,0,0,8.1,7.715,7.91,7.91,0,0,0,7.716-8.1" transform="translate(9345.45 2783.194)" fill="#2e2d2c"/>
    <path id="path86" d="M825.156-123.3a5.986,5.986,0,0,1-5.975-5.833,5.985,5.985,0,0,1,5.832-6.12l.147,0a5.985,5.985,0,0,1,5.975,5.832A5.985,5.985,0,0,1,825.3-123.3l-.147,0m0-11.144-.127,0a5.173,5.173,0,0,0-5.041,5.29,5.173,5.173,0,0,0,5.164,5.042h.127a5.173,5.173,0,0,0,5.041-5.291,5.173,5.173,0,0,0-5.164-5.041" transform="translate(9338.082 2775.826)" fill="#252323"/>
    <path id="path88" d="M828.378-121.021a5.174,5.174,0,0,1-5.292-5.041,5.173,5.173,0,0,1,5.041-5.29,5.173,5.173,0,0,1,5.292,5.039,5.174,5.174,0,0,1-5.041,5.291" transform="translate(9334.987 2772.731)" fill="#e6edf9"/>
    <path id="path90" d="M836.279-122.936a4.207,4.207,0,0,1-.155,1.252,4.291,4.291,0,0,1-2.7,2.891,4.29,4.29,0,0,1-1.325.243,4.274,4.274,0,0,1-1.333-.179,4.286,4.286,0,0,1-2.822-2.7,4.281,4.281,0,0,1-.233-1.3,4.282,4.282,0,0,1,.17-1.308,4.287,4.287,0,0,1,2.716-2.847,4.261,4.261,0,0,1,1.294-.233,4.257,4.257,0,0,1,1.3.17,4.288,4.288,0,0,1,2.869,2.765,4.294,4.294,0,0,1,.216,1.245" transform="translate(9331.323 2769.376)" fill="#a6acb1"/>
    <path id="path92" d="M844.545-126.905a1.612,1.612,0,0,1-1.351.75,1.393,1.393,0,0,1-1.248-.75,4.262,4.262,0,0,1,1.3-.2,4.263,4.263,0,0,1,1.3.2" transform="translate(9320.043 2769.368)" fill="#3d4152"/>
    <path id="path94" d="M845.084-89.985a4.281,4.281,0,0,1-1.325.243,4.274,4.274,0,0,1-1.333-.179,1.5,1.5,0,0,1,1.309-.838,1.5,1.5,0,0,1,1.349.774" transform="translate(9319.663 2740.569)" fill="#3d4152"/>
    <path id="path96" d="M865.711-111.735a4.2,4.2,0,0,1-.155,1.252,1.5,1.5,0,0,1-.7-1.232,1.5,1.5,0,0,1,.639-1.266,4.294,4.294,0,0,1,.216,1.245" transform="translate(9301.892 2758.175)" fill="#3d4152"/>
    <path id="path98" d="M828.671-110.993a1.5,1.5,0,0,1-.727,1.321,4.281,4.281,0,0,1-.233-1.3,4.282,4.282,0,0,1,.17-1.308,1.5,1.5,0,0,1,.79,1.284" transform="translate(9331.323 2757.618)" fill="#3d4152"/>
    <path id="path100" d="M841.034-116.454a2.554,2.554,0,0,1-.094.759,2.6,2.6,0,0,1-1.636,1.751,2.6,2.6,0,0,1-.8.148,2.6,2.6,0,0,1-.808-.108,2.6,2.6,0,0,1-1.71-1.637,2.6,2.6,0,0,1-.142-.786,2.6,2.6,0,0,1,.1-.792,2.6,2.6,0,0,1,1.646-1.725,2.577,2.577,0,0,1,.784-.141,2.574,2.574,0,0,1,.79.1,2.6,2.6,0,0,1,1.738,1.675,2.609,2.609,0,0,1,.131.755" transform="translate(9324.88 2762.934)" fill="#e6edf9"/>
    <path id="path102" d="M845.278-110.661a1.073,1.073,0,0,1-.04.319,1.09,1.09,0,0,1-.688.735,1.1,1.1,0,0,1-.338.062,1.088,1.088,0,0,1-.339-.046,1.094,1.094,0,0,1-.719-.689,1.085,1.085,0,0,1-.06-.33,1.086,1.086,0,0,1,.043-.333,1.088,1.088,0,0,1,.692-.723,1.078,1.078,0,0,1,.33-.059,1.083,1.083,0,0,1,.332.044,1.093,1.093,0,0,1,.73.7,1.089,1.089,0,0,1,.055.317" transform="translate(9319.133 2757.182)" fill="#3d4152"/>
    <path id="path104" d="M827.71-106.773v0c0-.036,0-.071,0-.106,0,.035,0,.071,0,.106v0h0m8.568-.208v0h0" transform="translate(9331.323 2753.424)" fill="#b0b6ce"/>
    <path id="path106" d="M849.213-126.951h0m-.028-.008h0m-1.239-.158h0m.087,0h0" transform="translate(9315.289 2769.377)" fill="#b0b6ce"/>
    <path id="path108" d="M836.108-123.255a3.432,3.432,0,0,0-.151-.676,3.485,3.485,0,0,0-2.332-2.248,3.375,3.375,0,0,0-.472-.1,1.5,1.5,0,0,0,.765-.632,4.263,4.263,0,0,0-1.3-.2q-.154,0-.3.011c.076-.006.153-.01.23-.012h.108a4.263,4.263,0,0,1,1.149.158h0l.024.007h0l.016,0a4.288,4.288,0,0,1,2.869,2.765,1.5,1.5,0,0,0-.609.927m-6.911-.067a1.509,1.509,0,0,0-.663-.714,4.287,4.287,0,0,1,2.716-2.847l.073-.025a1.5,1.5,0,0,0,.707.645,3.367,3.367,0,0,0-.519.136,3.486,3.486,0,0,0-2.208,2.317,3.351,3.351,0,0,0-.105.488" transform="translate(9330.669 2769.377)" fill="#7e848d"/>
    <path id="path110" d="M842.67-126.254a1.5,1.5,0,0,1-.707-.645,4.26,4.26,0,0,1,.991-.2q.151-.011.3-.011a4.263,4.263,0,0,1,1.3.2,1.5,1.5,0,0,1-.765.632,3.519,3.519,0,0,0-.5-.036H843.2a3.494,3.494,0,0,0-.534.053" transform="translate(9320.029 2769.368)" fill="#303240"/>
    <path id="path112" d="M865.026-111.713v0q0-.171-.025-.338a1.5,1.5,0,0,1,.609-.927h0a4.294,4.294,0,0,1,.216,1.245h0v0l-.8.02" transform="translate(9301.775 2758.175)" fill="#303240"/>
    <path id="path114" d="M827.71-110.968v0c0-.035,0-.071,0-.106a4.274,4.274,0,0,1,.171-1.2h0a1.509,1.509,0,0,1,.663.714,3.517,3.517,0,0,0-.033.574v0l-.8.019" transform="translate(9331.323 2757.618)" fill="#303240"/>
    <path id="path116" d="M707.073-147.948a10.355,10.355,0,0,0-10.39-8.3,10.356,10.356,0,0,0-9.975,8.8,10.3,10.3,0,0,0-.111,1.789,10.324,10.324,0,0,0,.088,1.114l2.448-.059a7.648,7.648,0,0,1-.107-1.113,7.852,7.852,0,0,1,.16-1.79,7.911,7.911,0,0,1,7.557-6.307,7.912,7.912,0,0,1,7.854,5.933,7.861,7.861,0,0,1,.246,1.78,7.658,7.658,0,0,1-.053,1.117l2.448-.06a10.268,10.268,0,0,0,.034-1.117,10.232,10.232,0,0,0-.2-1.781" transform="translate(9443.132 2792.46)" fill="#425354"/>
    <path id="path118" d="M707.558-147.807a8.9,8.9,0,0,0-5.545-1.759,8.9,8.9,0,0,0-5.453,2.026,8.937,8.937,0,0,0-3.279,7.137,9.069,9.069,0,0,0,.1,1.114l2.1-.051a6.746,6.746,0,0,1-.119-1.113,6.875,6.875,0,0,1,6.7-7.031,6.875,6.875,0,0,1,7.034,6.7,6.725,6.725,0,0,1-.065,1.118l2.1-.051a9.081,9.081,0,0,0,.042-1.117,8.937,8.937,0,0,0-3.622-6.969" transform="translate(9437.835 2787.164)" fill="#201e1c"/>
    <path id="path120" d="M714.112-136.842a7.91,7.91,0,0,0-8.1-7.714,7.91,7.91,0,0,0-7.716,8.1,7.91,7.91,0,0,0,8.1,7.715,7.91,7.91,0,0,0,7.716-8.1" transform="translate(9433.861 2783.194)" fill="#2e2d2c"/>
    <path id="path122" d="M713.569-123.3a5.985,5.985,0,0,1-5.975-5.833,5.985,5.985,0,0,1,5.832-6.12l.147,0a5.985,5.985,0,0,1,5.975,5.832,5.985,5.985,0,0,1-5.832,6.122l-.147,0m0-11.144-.127,0a5.173,5.173,0,0,0-5.041,5.29,5.173,5.173,0,0,0,5.164,5.042h.127a5.173,5.173,0,0,0,5.041-5.291,5.173,5.173,0,0,0-5.165-5.041" transform="translate(9426.494 2775.826)" fill="#252323"/>
    <path id="path124" d="M716.792-121.021a5.174,5.174,0,0,1-5.292-5.041,5.173,5.173,0,0,1,5.041-5.29,5.173,5.173,0,0,1,5.292,5.039,5.173,5.173,0,0,1-5.041,5.291" transform="translate(9423.399 2772.731)" fill="#e6edf9"/>
    <path id="path126" d="M724.692-122.936a4.207,4.207,0,0,1-.155,1.252,4.291,4.291,0,0,1-2.7,2.891,4.29,4.29,0,0,1-1.325.243,4.275,4.275,0,0,1-1.333-.179,4.285,4.285,0,0,1-2.822-2.7,4.281,4.281,0,0,1-.234-1.3,4.284,4.284,0,0,1,.17-1.308,4.287,4.287,0,0,1,2.716-2.847,4.259,4.259,0,0,1,1.294-.233,4.257,4.257,0,0,1,1.3.17,4.288,4.288,0,0,1,2.869,2.765,4.292,4.292,0,0,1,.216,1.245" transform="translate(9419.736 2769.376)" fill="#a6acb1"/>
    <path id="path128" d="M732.957-126.905a1.613,1.613,0,0,1-1.351.75,1.393,1.393,0,0,1-1.248-.75,4.266,4.266,0,0,1,1.3-.2,4.263,4.263,0,0,1,1.3.2" transform="translate(9408.456 2769.368)" fill="#3d4152"/>
    <path id="path130" d="M733.5-89.985a4.281,4.281,0,0,1-1.325.243,4.276,4.276,0,0,1-1.333-.179,1.5,1.5,0,0,1,1.308-.838,1.5,1.5,0,0,1,1.35.774" transform="translate(9408.075 2740.569)" fill="#3d4152"/>
    <path id="path132" d="M754.125-111.735a4.2,4.2,0,0,1-.155,1.252,1.5,1.5,0,0,1-.7-1.232,1.5,1.5,0,0,1,.639-1.266,4.292,4.292,0,0,1,.216,1.245" transform="translate(9390.304 2758.175)" fill="#3d4152"/>
    <path id="path134" d="M717.083-110.993a1.5,1.5,0,0,1-.727,1.321,4.281,4.281,0,0,1-.234-1.3,4.284,4.284,0,0,1,.17-1.308,1.5,1.5,0,0,1,.79,1.284" transform="translate(9419.736 2757.618)" fill="#3d4152"/>
    <path id="path136" d="M729.447-116.454a2.548,2.548,0,0,1-.094.759,2.6,2.6,0,0,1-1.636,1.751,2.6,2.6,0,0,1-.8.148,2.6,2.6,0,0,1-.808-.108,2.6,2.6,0,0,1-1.71-1.637,2.584,2.584,0,0,1-.141-.786,2.6,2.6,0,0,1,.1-.792A2.6,2.6,0,0,1,726-118.845a2.581,2.581,0,0,1,.784-.141,2.575,2.575,0,0,1,.79.1,2.6,2.6,0,0,1,1.738,1.675,2.6,2.6,0,0,1,.131.755" transform="translate(9413.292 2762.934)" fill="#e6edf9"/>
    <path id="path138" d="M733.692-110.661a1.083,1.083,0,0,1-.04.319,1.091,1.091,0,0,1-.688.735,1.1,1.1,0,0,1-.338.062,1.091,1.091,0,0,1-.34-.046,1.093,1.093,0,0,1-.719-.689,1.085,1.085,0,0,1-.06-.33,1.084,1.084,0,0,1,.043-.333,1.088,1.088,0,0,1,.692-.723,1.077,1.077,0,0,1,.329-.059,1.081,1.081,0,0,1,.332.044,1.093,1.093,0,0,1,.731.7,1.089,1.089,0,0,1,.055.317" transform="translate(9407.545 2757.182)" fill="#3d4152"/>
    <path id="path140" d="M716.122-122.727v0c0-.035,0-.071,0-.106,0,.035,0,.071,0,.106v0h0m5.469-4.225h0m-.028-.008h0m-1.239-.158h0m.087,0h0" transform="translate(9419.736 2769.377)" fill="#b0b6ce"/>
    <path id="path142" d="M724.521-123.255a3.48,3.48,0,0,0-.151-.676,3.485,3.485,0,0,0-2.332-2.248,3.379,3.379,0,0,0-.472-.1,1.5,1.5,0,0,0,.765-.632,4.263,4.263,0,0,0-1.3-.2c-.1,0-.205,0-.307.011.077-.006.154-.01.232-.012h.108a4.264,4.264,0,0,1,1.149.158h0l.024.007h0l.016,0a4.289,4.289,0,0,1,2.869,2.765,1.5,1.5,0,0,0-.609.927m-6.911-.067a1.51,1.51,0,0,0-.663-.714,4.287,4.287,0,0,1,2.716-2.847l.073-.025a1.5,1.5,0,0,0,.707.645,3.368,3.368,0,0,0-.519.136,3.487,3.487,0,0,0-2.208,2.317,3.4,3.4,0,0,0-.105.488" transform="translate(9419.082 2769.377)" fill="#7e848d"/>
    <path id="path144" d="M731.083-126.254a1.5,1.5,0,0,1-.707-.645,4.251,4.251,0,0,1,.989-.2c.1-.007.2-.011.307-.011a4.263,4.263,0,0,1,1.3.2,1.5,1.5,0,0,1-.765.632,3.524,3.524,0,0,0-.5-.036h-.088a3.488,3.488,0,0,0-.534.053" transform="translate(9408.442 2769.368)" fill="#303240"/>
    <path id="path146" d="M753.44-111.713v0q0-.171-.024-.338a1.5,1.5,0,0,1,.609-.927h0a4.3,4.3,0,0,1,.216,1.245v0l-.8.02" transform="translate(9390.188 2758.175)" fill="#303240"/>
    <path id="path148" d="M716.122-110.968v0c0-.035,0-.071,0-.106a4.274,4.274,0,0,1,.172-1.2h0a1.51,1.51,0,0,1,.663.714,3.545,3.545,0,0,0-.032.574v0l-.8.019" transform="translate(9419.736 2757.618)" fill="#303240"/>
    <path id="path150" d="M930.247-147.948a10.355,10.355,0,0,0-10.39-8.3,10.355,10.355,0,0,0-9.974,8.8,10.241,10.241,0,0,0-.111,1.789,10.324,10.324,0,0,0,.088,1.114l2.448-.059a7.631,7.631,0,0,1-.107-1.113,7.859,7.859,0,0,1,.159-1.79,7.911,7.911,0,0,1,7.557-6.307,7.911,7.911,0,0,1,7.854,5.933,7.861,7.861,0,0,1,.246,1.78,7.658,7.658,0,0,1-.053,1.117l2.447-.06a10.221,10.221,0,0,0,.034-1.117,10.261,10.261,0,0,0-.2-1.781" transform="translate(9266.307 2792.46)" fill="#425354"/>
    <path id="path152" d="M930.731-147.807a8.9,8.9,0,0,0-5.545-1.759,8.9,8.9,0,0,0-5.453,2.026,8.937,8.937,0,0,0-3.279,7.137,9.069,9.069,0,0,0,.1,1.114l2.1-.051a6.714,6.714,0,0,1-.119-1.113,6.875,6.875,0,0,1,6.7-7.031,6.875,6.875,0,0,1,7.034,6.7,6.778,6.778,0,0,1-.065,1.118l2.1-.051a9.081,9.081,0,0,0,.042-1.117,8.937,8.937,0,0,0-3.621-6.969" transform="translate(9261.011 2787.164)" fill="#201e1c"/>
    <path id="path154" d="M937.286-136.842a7.909,7.909,0,0,0-8.1-7.714,7.91,7.91,0,0,0-7.715,8.1,7.91,7.91,0,0,0,8.1,7.715,7.91,7.91,0,0,0,7.716-8.1" transform="translate(9257.036 2783.194)" fill="#2e2d2c"/>
    <path id="path156" d="M936.743-123.3a5.985,5.985,0,0,1-5.975-5.833,5.985,5.985,0,0,1,5.832-6.12l.147,0a5.985,5.985,0,0,1,5.975,5.832,5.986,5.986,0,0,1-5.832,6.122l-.147,0m0-11.144-.127,0a5.173,5.173,0,0,0-5.041,5.29,5.173,5.173,0,0,0,5.165,5.042h.127a5.173,5.173,0,0,0,5.041-5.291,5.173,5.173,0,0,0-5.165-5.041" transform="translate(9249.669 2775.826)" fill="#252323"/>
    <path id="path158" d="M939.965-121.021a5.174,5.174,0,0,1-5.292-5.041,5.173,5.173,0,0,1,5.041-5.29,5.173,5.173,0,0,1,5.292,5.039,5.173,5.173,0,0,1-5.041,5.291" transform="translate(9246.574 2772.731)" fill="#e6edf9"/>
    <path id="path160" d="M947.866-122.936a4.225,4.225,0,0,1-.155,1.252,4.292,4.292,0,0,1-2.7,2.891,4.289,4.289,0,0,1-1.325.243,4.273,4.273,0,0,1-1.333-.179,4.287,4.287,0,0,1-2.822-2.7,4.279,4.279,0,0,1-.233-1.3,4.278,4.278,0,0,1,.17-1.308,4.287,4.287,0,0,1,2.716-2.847,4.258,4.258,0,0,1,1.294-.233,4.257,4.257,0,0,1,1.3.17,4.288,4.288,0,0,1,2.869,2.765,4.292,4.292,0,0,1,.216,1.245" transform="translate(9242.911 2769.376)" fill="#a6acb1"/>
    <path id="path162" d="M956.131-126.905a1.613,1.613,0,0,1-1.351.75,1.393,1.393,0,0,1-1.248-.75,4.262,4.262,0,0,1,1.3-.2,4.265,4.265,0,0,1,1.3.2" transform="translate(9231.631 2769.368)" fill="#3d4152"/>
    <path id="path164" d="M956.671-89.985a4.28,4.28,0,0,1-1.325.243,4.274,4.274,0,0,1-1.333-.179,1.5,1.5,0,0,1,1.308-.838,1.5,1.5,0,0,1,1.349.774" transform="translate(9231.25 2740.569)" fill="#3d4152"/>
    <path id="path166" d="M977.3-111.735a4.225,4.225,0,0,1-.155,1.252,1.5,1.5,0,0,1-.7-1.232,1.5,1.5,0,0,1,.639-1.266,4.3,4.3,0,0,1,.216,1.245" transform="translate(9213.479 2758.175)" fill="#3d4152"/>
    <path id="path168" d="M940.257-110.993a1.5,1.5,0,0,1-.727,1.321,4.284,4.284,0,0,1-.233-1.3,4.28,4.28,0,0,1,.17-1.308,1.5,1.5,0,0,1,.79,1.284" transform="translate(9242.911 2757.618)" fill="#3d4152"/>
    <path id="path170" d="M952.621-116.454a2.564,2.564,0,0,1-.094.759,2.6,2.6,0,0,1-1.636,1.751,2.6,2.6,0,0,1-.8.148,2.6,2.6,0,0,1-.808-.108,2.6,2.6,0,0,1-1.71-1.637,2.584,2.584,0,0,1-.141-.786,2.6,2.6,0,0,1,.1-.792,2.6,2.6,0,0,1,1.646-1.725,2.578,2.578,0,0,1,.784-.141,2.576,2.576,0,0,1,.79.1,2.6,2.6,0,0,1,1.738,1.675,2.607,2.607,0,0,1,.131.755" transform="translate(9236.468 2762.934)" fill="#e6edf9"/>
    <path id="path172" d="M956.865-110.661a1.065,1.065,0,0,1-.04.319,1.09,1.09,0,0,1-.688.735,1.1,1.1,0,0,1-.338.062,1.089,1.089,0,0,1-.339-.046,1.094,1.094,0,0,1-.719-.689,1.092,1.092,0,0,1-.06-.33,1.091,1.091,0,0,1,.043-.333,1.089,1.089,0,0,1,.692-.723,1.077,1.077,0,0,1,.33-.059,1.081,1.081,0,0,1,.332.044,1.094,1.094,0,0,1,.731.7,1.086,1.086,0,0,1,.055.317" transform="translate(9230.72 2757.182)" fill="#3d4152"/>
    <path id="path174" d="M939.3-106.773v0c0-.036,0-.071,0-.106,0,.035,0,.071,0,.106v0h0m8.569-.208v0h0" transform="translate(9242.911 2753.424)" fill="#b0b6ce"/>
    <path id="path176" d="M960.806-126.95l-.013,0,.013,0m-.028-.008-.011,0,.011,0m-1.244-.16h0m.086,0h0" transform="translate(9226.876 2769.377)" fill="#b0b6ce"/>
    <path id="path178" d="M947.7-123.255a3.49,3.49,0,0,0-.151-.676,3.485,3.485,0,0,0-2.332-2.248,3.388,3.388,0,0,0-.472-.1,1.5,1.5,0,0,0,.765-.632,4.265,4.265,0,0,0-1.3-.2q-.155,0-.307.011c.077-.006.154-.01.232-.012h.108a4.247,4.247,0,0,1,1.147.158l.011,0,.015,0,.013,0,.01,0a4.288,4.288,0,0,1,2.869,2.765,1.5,1.5,0,0,0-.609.927m-6.911-.067a1.509,1.509,0,0,0-.663-.714,4.287,4.287,0,0,1,2.716-2.847l.073-.025a1.5,1.5,0,0,0,.707.645,3.37,3.37,0,0,0-.519.136,3.487,3.487,0,0,0-2.208,2.317,3.351,3.351,0,0,0-.106.488" transform="translate(9242.256 2769.377)" fill="#7e848d"/>
    <path id="path180" d="M954.257-126.254a1.5,1.5,0,0,1-.707-.645,4.261,4.261,0,0,1,.989-.2q.152-.011.307-.011a4.266,4.266,0,0,1,1.3.2,1.505,1.505,0,0,1-.765.632,3.521,3.521,0,0,0-.5-.036h-.088a3.485,3.485,0,0,0-.534.053" transform="translate(9231.617 2769.368)" fill="#303240"/>
    <path id="path182" d="M976.614-111.713v0q0-.171-.024-.338a1.506,1.506,0,0,1,.609-.927h0a4.3,4.3,0,0,1,.216,1.245h0v0l-.8.02" transform="translate(9213.362 2758.175)" fill="#303240"/>
    <path id="path184" d="M939.3-110.968v0c0-.035,0-.071,0-.106a4.277,4.277,0,0,1,.172-1.2h0a1.51,1.51,0,0,1,.663.714,3.552,3.552,0,0,0-.032.574v0l-.8.019" transform="translate(9242.911 2757.618)" fill="#303240"/>
    <path id="path186" d="M671.588-164.834H578.729v1.258h92.859v-1.258" transform="translate(9528.595 2799.26)" fill="#313c3d"/>
    <path id="path188" d="M505.009-140.211h10.373v-3.509H505.009Z" transform="translate(9587.005 2782.53)" fill="#425354"/>
    <path id="path190" d="M221.278-315.186v-11.932h-1.464s-23.828.56-23.817,8.086c.007,4.537,9.081,5.395,9.081,5.395l16.2-1.55" transform="translate(9831.842 2927.84)" fill="#f9a50d"/>
    <path id="path192" d="M217.991-302.947v6.439H191.849c.84-4.263.684-6.439,4.385-6.439h21.758" transform="translate(9835.128 2908.689)" fill="#f9d406"/>
    <path id="path194" d="M225.042-297.09v5.57H200.748c.671-3.689.257-5.57,3.7-5.57h20.595" transform="translate(9828.077 2904.049)" fill="#f6871c"/>
    <path id="path196" d="M287.953-261.9h6.184v-26.28h-6.184V-261.9" transform="translate(9758.983 2896.991)" fill="#f9a50d"/>
    <path id="path198" d="M188.181-162.59h-5.553v-3.363h5.553v3.363" transform="translate(9842.433 2800.146)" fill="#fff"/>
    <path id="path200" d="M203.458-149.922h16.608l1.378-2.429h16.417l1.735,2.429v8.212H168.243l-1.793-8.212h37.008" transform="translate(9855.252 2789.369)" fill="#425354"/>
    <path id="path202" d="M405.866-133.728h3.316l.868-1.92v-5.007h-4.184v6.927" transform="translate(9665.558 2780.102)" fill="#2e2d2c"/>
    <path id="path204" d="M188.876-288.339v27.961l-25.9,2.776-2-1.253c0-.6-.007-1.032-.007-2.878a49.644,49.644,0,0,1,.463-6.339c.023-.172.047-.343.071-.515l2.155-11.639.293-1.587c.7-3.554,3.283-5.655,5.377-5.9,6.1-.727-.972-.62,19.546-.62" transform="translate(9859.595 2897.12)" fill="#f9a50d"/>
    <path id="path206" d="M167.012-248.481c-.165.892-.447,2.428-.751,4.072-.436,2.365-.914,4.957-1.143,6.2a.96.96,0,0,1-.786.868c-.465.092-1.131.213-1.131.213.023-.172.047-.343.071-.515l.675-3.644,1.48-8,0-.007h1.137c.347,0,.541.307.447.81" transform="translate(9857.827 2866.177)" fill="#20445b"/>
    <path id="path208" d="M168.928-246.109h.706c.3,0,.287.2.249.4l-.737,3.994c-.432.58-.9,1.214-1.373,1.848l1.155-6.241" transform="translate(9854.204 2863.655)" fill="#37a08d"/>
    <path id="path210" d="M156.6-176.434a.87.87,0,0,0-.868.868v4.527a.87.87,0,0,0,.868.868h2.53a14.7,14.7,0,0,0,1.727-.123l5.6-.805a1.034,1.034,0,0,0,.859-.991v-3.475a.87.87,0,0,0-.868-.868H156.6" transform="translate(9863.748 2808.451)" fill="#f9a50d"/>
    <path id="path212" d="M191.077-268.587v-.521s-26.117.157-26.027-.393c-.377,1.345-1.248,3.044-1.608,4.873h5.368l1.272-2.6,21-1.356" transform="translate(9857.636 2882.189)" fill="#425354"/>
    <path id="path214" d="M176.858-233.943v-6.685a19.093,19.093,0,0,1,.242-2.755l2.154-12.149a1.722,1.722,0,0,1,1.631-1.367h18.971a1.392,1.392,0,0,1,1.388,1.388v20.862l-24.386.7" transform="translate(9847.006 2872.204)" fill="#f9d406"/>
    <path id="path216" d="M175.589-235.662v-6.685a18.72,18.72,0,0,1,.236-2.676l2.154-12.149a1.21,1.21,0,0,1,.424-.7,1.212,1.212,0,0,1,.762-.3h18.971a.935.935,0,0,1,.662.276.932.932,0,0,1,.276.662v20.862h.9V-257.23a1.843,1.843,0,0,0-1.839-1.839H179.166a2.108,2.108,0,0,0-1.341.507,2.11,2.11,0,0,0-.733,1.232l-2.154,12.149a19.471,19.471,0,0,0-.249,2.834v6.685h.9" transform="translate(9848.726 2873.924)" fill="#db711a"/>
    <path id="path218" d="M195.128-193.629a.847.847,0,0,1,1.026.862v.593a1.316,1.316,0,0,1-1.022,1.239l-2.216.428a1.316,1.316,0,0,0-1.022,1.239v1.15a1.292,1.292,0,0,1-1.025,1.223l-4.628.824a.843.843,0,0,1-1.025-.859v-3.928a1.288,1.288,0,0,1,1.026-1.22l.444-.078,2.051-.358,6.392-1.116" transform="translate(9840.384 2822.086)" fill="#fab30c"/>
    <path id="path220" d="M259.306-249.291a1.392,1.392,0,0,1,1.388,1.388v4.831a1.712,1.712,0,0,1-1.368,1.624l-2.421.416-2.06.354c-.381.065-.692-.506-.692-1.269V-247.9a1.392,1.392,0,0,1,1.388-1.388h3.765" transform="translate(9785.764 2866.177)" fill="#20445b"/>
    <path id="path222" d="M196.853-249.291a1.392,1.392,0,0,1,1.388,1.388v6.526a1.717,1.717,0,0,1-1.367,1.627l-5.19.907-2.735.477-.022,0a.906.906,0,0,1-1.118-1.127l.624-3.413.5-2.731.419-2.293a1.733,1.733,0,0,1,1.638-1.365h5.865" transform="translate(9838.347 2866.177)" fill="#20445b"/>
    <path id="path224" d="M246.077-256.9v19.784" transform="translate(9792.162 2872.204)" fill="none" stroke="#db711a" stroke-width="4.177"/>
    <path id="path226" d="M213.6-164.981a10.962,10.962,0,0,0-7.713,3.148,10.933,10.933,0,0,0-1.568,1.928h1.3a9.965,9.965,0,0,1,1.018-1.166,10.261,10.261,0,0,1,6.966-3.189H227.87v-.721H213.6" transform="translate(9825.249 2799.376)" fill="#b3641d"/>
    <path id="path228" d="M184.148-150.659h6.966v-2.691l-13.743,1.826L172.9-151.9H161.228v1.24h22.921" transform="translate(9859.39 2790.161)" fill="#2e2d2c"/>
    <g id="g230" transform="translate(10030.79 2635.089)">
      <g id="g232" transform="translate(0 0)" clip-path="url(#clip-path)">
        <g id="g238" clip-path="url(#clip-path)">
          <g id="g244" transform="translate(-1.612 0)">
            <path id="path246" d="M10375.649,3092.542l8.638-1.8a19.96,19.96,0,0,1,1.379-6.359,10.226,10.226,0,0,0-10.017,8.162Z" transform="translate(-10375.649 -3084.379)" fill="#2e2d2c"/>
            <path id="path248" d="M10417.239,3090.738l9.584-2a24.989,24.989,0,0,1,.507-4.358h-8.711A19.986,19.986,0,0,0,10417.239,3090.738Z" transform="translate(-10408.602 -3084.379)" fill="#2e2d2c"/>
            <path id="path250" d="M10463.387,3088.737l1.658.016a35.684,35.684,0,0,1,.35-4.374h-1.5A24.989,24.989,0,0,0,10463.387,3088.737Z" transform="translate(-10445.165 -3084.379)" fill="#2e2d2c"/>
            <path id="path252" d="M10471.374,3088.753c1.219.012.7.024,1.921.036v-4.41h-1.572A35.495,35.495,0,0,0,10471.374,3088.753Z" transform="translate(-10451.494 -3084.379)" fill="#2e2d2c"/>
          </g>
        </g>
      </g>
    </g>
    <path id="path254" d="M236.326-110.9v2.034h-60.74L162.322-110.9h74" transform="translate(9858.522 2756.526)" fill="#2e2d2c"/>
    <path id="path256" d="M282.559-135.182a10.317,10.317,0,0,0-2.638-5.27H275.95a7.919,7.919,0,0,1,4.131,5.27,7.861,7.861,0,0,1,.2,1.785,7.159,7.159,0,0,1-.035.725c-.01.13-.026.262-.045.39h2.448c.01-.1.019-.191.028-.288.021-.272.033-.55.033-.828a10.279,10.279,0,0,0-.154-1.785" transform="translate(9768.493 2779.941)" fill="#2e2d2c"/>
    <path id="path258" d="M155.673-140.454a.87.87,0,0,0-.868.868v7.13a.87.87,0,0,0,.868.867h15.743a.87.87,0,0,0,.868-.867v-7.13a.87.87,0,0,0-.868-.868H155.673" transform="translate(9864.479 2779.943)" fill="#fab30c"/>
    <path id="path260" d="M196.436-133.079c0,.292.013.584.035.871.009.1.018.2.029.3h4.062c-.02-.135-.047-.274-.058-.411-.026-.252-1.511-.506-1.511-.763a8.277,8.277,0,0,1,.214-1.879c.559-2.426.546-4.795,2.714-5.894H199.2a11.743,11.743,0,0,0-2.6,5.894,10.807,10.807,0,0,0-.163,1.88" transform="translate(9831.494 2780.259)" fill="#2e2d2c"/>
    <path id="path262" d="M153.051-131.752a.87.87,0,0,0-.868.867v2.1a.87.87,0,0,0,.868.868h1.782a.87.87,0,0,0,.868-.868v-2.1a.87.87,0,0,0-.868-.867h-1.782" transform="translate(9866.556 2773.048)" fill="#f7fafe"/>
    <path id="path264" d="M222.93-147.948a10.355,10.355,0,0,0-10.39-8.3,10.356,10.356,0,0,0-9.974,8.8,10.24,10.24,0,0,0-.111,1.789,10.309,10.309,0,0,0,.088,1.114l2.448-.059a7.642,7.642,0,0,1-.107-1.113,7.878,7.878,0,0,1,.16-1.79,7.912,7.912,0,0,1,7.557-6.307,7.912,7.912,0,0,1,7.854,5.933,7.876,7.876,0,0,1,.246,1.78,7.66,7.66,0,0,1-.053,1.117l2.448-.06a10.307,10.307,0,0,0,.034-1.117,10.263,10.263,0,0,0-.2-1.781" transform="translate(9826.728 2792.46)" fill="#425354"/>
    <path id="path266" d="M223.414-147.807a8.9,8.9,0,0,0-5.545-1.759,8.9,8.9,0,0,0-5.453,2.026,8.936,8.936,0,0,0-3.279,7.137,9.066,9.066,0,0,0,.1,1.114l2.1-.051a6.746,6.746,0,0,1-.119-1.113,6.875,6.875,0,0,1,6.7-7.031,6.875,6.875,0,0,1,7.034,6.7,6.748,6.748,0,0,1-.065,1.118l2.1-.051a9.09,9.09,0,0,0,.042-1.117,8.937,8.937,0,0,0-3.622-6.969" transform="translate(9821.432 2787.164)" fill="#201e1c"/>
    <path id="path268" d="M229.969-136.842a7.91,7.91,0,0,0-8.1-7.714,7.91,7.91,0,0,0-7.716,8.1,7.91,7.91,0,0,0,8.1,7.715,7.91,7.91,0,0,0,7.716-8.1" transform="translate(9817.458 2783.194)" fill="#2e2d2c"/>
    <path id="path270" d="M229.426-123.3a5.985,5.985,0,0,1-5.975-5.833,5.985,5.985,0,0,1,5.832-6.12l.148,0a5.985,5.985,0,0,1,5.975,5.832,5.986,5.986,0,0,1-5.832,6.122l-.147,0m0-11.144-.127,0a5.173,5.173,0,0,0-5.041,5.29,5.173,5.173,0,0,0,5.164,5.042h.127a5.173,5.173,0,0,0,5.041-5.291,5.173,5.173,0,0,0-5.165-5.041" transform="translate(9810.09 2775.826)" fill="#252323"/>
    <path id="path272" d="M232.649-121.021a5.173,5.173,0,0,1-5.292-5.041,5.173,5.173,0,0,1,5.041-5.29,5.173,5.173,0,0,1,5.292,5.039,5.173,5.173,0,0,1-5.041,5.291" transform="translate(9806.995 2772.731)" fill="#e6edf9"/>
    <path id="path274" d="M240.549-122.936a4.225,4.225,0,0,1-.155,1.252,4.292,4.292,0,0,1-2.7,2.891,4.292,4.292,0,0,1-1.325.243,4.274,4.274,0,0,1-1.333-.179,4.287,4.287,0,0,1-2.822-2.7,4.283,4.283,0,0,1-.233-1.3,4.282,4.282,0,0,1,.17-1.308,4.287,4.287,0,0,1,2.716-2.847,4.26,4.26,0,0,1,1.294-.233,4.254,4.254,0,0,1,1.3.17,4.288,4.288,0,0,1,2.869,2.765,4.3,4.3,0,0,1,.216,1.245" transform="translate(9803.332 2769.376)" fill="#a6acb1"/>
    <path id="path276" d="M248.815-126.905a1.613,1.613,0,0,1-1.351.75,1.393,1.393,0,0,1-1.248-.75,4.261,4.261,0,0,1,1.3-.2,4.263,4.263,0,0,1,1.3.2" transform="translate(9792.052 2769.368)" fill="#3d4152"/>
    <path id="path278" d="M249.355-89.985a4.281,4.281,0,0,1-1.325.243,4.274,4.274,0,0,1-1.333-.179,1.5,1.5,0,0,1,1.308-.838,1.5,1.5,0,0,1,1.35.774" transform="translate(9791.671 2740.569)" fill="#3d4152"/>
    <path id="path280" d="M269.982-111.735a4.226,4.226,0,0,1-.155,1.252,1.5,1.5,0,0,1-.7-1.232,1.5,1.5,0,0,1,.639-1.266,4.294,4.294,0,0,1,.216,1.245" transform="translate(9773.899 2758.175)" fill="#3d4152"/>
    <path id="path282" d="M232.94-110.993a1.5,1.5,0,0,1-.727,1.321,4.283,4.283,0,0,1-.233-1.3,4.282,4.282,0,0,1,.17-1.308,1.5,1.5,0,0,1,.79,1.284" transform="translate(9803.332 2757.618)" fill="#3d4152"/>
    <path id="path284" d="M245.3-116.454a2.555,2.555,0,0,1-.094.759,2.6,2.6,0,0,1-1.636,1.751,2.6,2.6,0,0,1-.8.148,2.6,2.6,0,0,1-.808-.108,2.6,2.6,0,0,1-1.71-1.637,2.6,2.6,0,0,1-.142-.786,2.6,2.6,0,0,1,.1-.792,2.6,2.6,0,0,1,1.646-1.725,2.58,2.58,0,0,1,.784-.141,2.575,2.575,0,0,1,.79.1,2.6,2.6,0,0,1,1.738,1.675,2.607,2.607,0,0,1,.131.755" transform="translate(9796.889 2762.934)" fill="#e6edf9"/>
    <path id="path286" d="M249.549-110.661a1.081,1.081,0,0,1-.04.319,1.091,1.091,0,0,1-.688.735,1.1,1.1,0,0,1-.338.062,1.09,1.09,0,0,1-.34-.046,1.093,1.093,0,0,1-.719-.689,1.084,1.084,0,0,1-.06-.33,1.094,1.094,0,0,1,.043-.333,1.089,1.089,0,0,1,.692-.723,1.078,1.078,0,0,1,.33-.059,1.081,1.081,0,0,1,.332.044,1.093,1.093,0,0,1,.731.7,1.1,1.1,0,0,1,.055.317" transform="translate(9791.142 2757.182)" fill="#3d4152"/>
    <path id="path288" d="M231.981-106.773v0c0-.036,0-.071,0-.106,0,.035,0,.071,0,.106v0h0m8.569-.208v0h0" transform="translate(9803.332 2753.424)" fill="#b0b6ce"/>
    <path id="path290" d="M253.488-126.95l-.013,0,.013,0m-.028-.008-.011,0,.011,0m-1.244-.16h0m.087,0h0" transform="translate(9787.299 2769.377)" fill="#b0b6ce"/>
    <path id="path292" d="M240.378-123.255a3.477,3.477,0,0,0-.151-.676,3.485,3.485,0,0,0-2.332-2.248,3.381,3.381,0,0,0-.472-.1,1.5,1.5,0,0,0,.765-.632,4.263,4.263,0,0,0-1.3-.2q-.154,0-.306.011c.076-.006.154-.01.231-.012h.108a4.25,4.25,0,0,1,1.147.158l.011,0,.015,0,.013,0,.01,0a4.288,4.288,0,0,1,2.869,2.765,1.5,1.5,0,0,0-.609.927m-6.911-.067a1.509,1.509,0,0,0-.663-.714,4.287,4.287,0,0,1,2.716-2.847l.073-.025a1.5,1.5,0,0,0,.707.645,3.368,3.368,0,0,0-.519.136,3.487,3.487,0,0,0-2.208,2.317,3.391,3.391,0,0,0-.106.488" transform="translate(9802.678 2769.377)" fill="#7e848d"/>
    <path id="path294" d="M246.94-126.254a1.5,1.5,0,0,1-.707-.645,4.269,4.269,0,0,1,.99-.2q.152-.011.306-.011a4.263,4.263,0,0,1,1.3.2,1.5,1.5,0,0,1-.765.632,3.494,3.494,0,0,0-.5-.036h-.088a3.486,3.486,0,0,0-.534.053" transform="translate(9792.038 2769.368)" fill="#303240"/>
    <path id="path296" d="M269.3-111.713v0q0-.171-.025-.338a1.5,1.5,0,0,1,.609-.927h0a4.294,4.294,0,0,1,.216,1.245h0v0l-.8.02" transform="translate(9773.783 2758.175)" fill="#303240"/>
    <path id="path298" d="M231.981-110.968v0c0-.035,0-.071,0-.106a4.275,4.275,0,0,1,.171-1.2h0a1.509,1.509,0,0,1,.663.714,3.548,3.548,0,0,0-.032.574v0l-.8.019" transform="translate(9803.332 2757.618)" fill="#303240"/>
    <path id="path300" d="M468.444-147.948a10.355,10.355,0,0,0-10.39-8.3,10.356,10.356,0,0,0-9.975,8.8,10.268,10.268,0,0,0-.111,1.789,10.309,10.309,0,0,0,.088,1.114l2.448-.059a7.682,7.682,0,0,1-.107-1.113,7.847,7.847,0,0,1,.16-1.79,7.911,7.911,0,0,1,7.556-6.307,7.912,7.912,0,0,1,7.854,5.933,7.859,7.859,0,0,1,.246,1.78,7.662,7.662,0,0,1-.053,1.117l2.448-.06a10.307,10.307,0,0,0,.034-1.117,10.234,10.234,0,0,0-.2-1.781" transform="translate(9632.202 2792.46)" fill="#425354"/>
    <path id="path302" d="M468.929-147.807a8.9,8.9,0,0,0-5.545-1.759,8.9,8.9,0,0,0-5.453,2.026,8.937,8.937,0,0,0-3.279,7.137,9.069,9.069,0,0,0,.1,1.114l2.1-.051a6.743,6.743,0,0,1-.119-1.113,6.875,6.875,0,0,1,6.7-7.031,6.875,6.875,0,0,1,7.035,6.7,6.744,6.744,0,0,1-.065,1.118l2.1-.051a9.093,9.093,0,0,0,.042-1.117,8.937,8.937,0,0,0-3.622-6.969" transform="translate(9626.905 2787.164)" fill="#201e1c"/>
    <path id="path304" d="M475.483-136.842a7.91,7.91,0,0,0-8.1-7.714,7.91,7.91,0,0,0-7.716,8.1,7.91,7.91,0,0,0,8.1,7.715,7.91,7.91,0,0,0,7.716-8.1" transform="translate(9622.933 2783.194)" fill="#2e2d2c"/>
    <path id="path306" d="M474.94-123.3a5.985,5.985,0,0,1-5.975-5.833,5.985,5.985,0,0,1,5.832-6.12l.147,0a5.985,5.985,0,0,1,5.975,5.832,5.986,5.986,0,0,1-5.832,6.122l-.147,0m0-11.144-.127,0a5.172,5.172,0,0,0-5.04,5.29,5.173,5.173,0,0,0,5.164,5.042h.127a5.173,5.173,0,0,0,5.041-5.291,5.173,5.173,0,0,0-5.165-5.041" transform="translate(9615.564 2775.826)" fill="#252323"/>
    <path id="path308" d="M478.163-121.021a5.173,5.173,0,0,1-5.292-5.041,5.173,5.173,0,0,1,5.041-5.29,5.173,5.173,0,0,1,5.292,5.039,5.173,5.173,0,0,1-5.041,5.291" transform="translate(9612.47 2772.731)" fill="#e6edf9"/>
    <path id="path310" d="M486.063-122.936a4.225,4.225,0,0,1-.155,1.252,4.291,4.291,0,0,1-2.7,2.891,4.29,4.29,0,0,1-1.325.243,4.274,4.274,0,0,1-1.333-.179,4.286,4.286,0,0,1-2.822-2.7,4.277,4.277,0,0,1-.234-1.3,4.282,4.282,0,0,1,.17-1.308,4.287,4.287,0,0,1,2.716-2.847,4.259,4.259,0,0,1,1.294-.233,4.256,4.256,0,0,1,1.3.17,4.289,4.289,0,0,1,2.869,2.765,4.294,4.294,0,0,1,.216,1.245" transform="translate(9608.807 2769.376)" fill="#a6acb1"/>
    <path id="path312" d="M494.33-126.905a1.613,1.613,0,0,1-1.351.75,1.393,1.393,0,0,1-1.248-.75,4.261,4.261,0,0,1,1.3-.2,4.262,4.262,0,0,1,1.3.2" transform="translate(9597.525 2769.368)" fill="#3d4152"/>
    <path id="path314" d="M494.869-89.985a4.281,4.281,0,0,1-1.325.243,4.275,4.275,0,0,1-1.333-.179,1.5,1.5,0,0,1,1.308-.838,1.5,1.5,0,0,1,1.35.774" transform="translate(9597.146 2740.569)" fill="#3d4152"/>
    <path id="path316" d="M515.495-111.735a4.223,4.223,0,0,1-.155,1.252,1.5,1.5,0,0,1-.7-1.232,1.5,1.5,0,0,1,.639-1.266,4.3,4.3,0,0,1,.216,1.245" transform="translate(9579.375 2758.175)" fill="#3d4152"/>
    <path id="path318" d="M478.454-110.993a1.5,1.5,0,0,1-.727,1.321,4.277,4.277,0,0,1-.234-1.3,4.282,4.282,0,0,1,.17-1.308,1.5,1.5,0,0,1,.79,1.284" transform="translate(9608.807 2757.618)" fill="#3d4152"/>
    <path id="path320" d="M490.819-116.454a2.555,2.555,0,0,1-.094.759,2.6,2.6,0,0,1-1.636,1.751,2.6,2.6,0,0,1-.8.148,2.6,2.6,0,0,1-.808-.108,2.6,2.6,0,0,1-1.71-1.637,2.586,2.586,0,0,1-.142-.786,2.593,2.593,0,0,1,.1-.792,2.6,2.6,0,0,1,1.645-1.725,2.58,2.58,0,0,1,.784-.141,2.575,2.575,0,0,1,.79.1,2.6,2.6,0,0,1,1.738,1.675,2.608,2.608,0,0,1,.131.755" transform="translate(9602.363 2762.934)" fill="#e6edf9"/>
    <path id="path322" d="M495.063-110.661a1.069,1.069,0,0,1-.039.319,1.09,1.09,0,0,1-.688.735,1.1,1.1,0,0,1-.337.062,1.089,1.089,0,0,1-.34-.046,1.094,1.094,0,0,1-.719-.689,1.092,1.092,0,0,1-.059-.33,1.084,1.084,0,0,1,.043-.333,1.089,1.089,0,0,1,.692-.723,1.077,1.077,0,0,1,.33-.059,1.081,1.081,0,0,1,.332.044,1.094,1.094,0,0,1,.731.7,1.086,1.086,0,0,1,.055.317" transform="translate(9596.615 2757.182)" fill="#3d4152"/>
    <path id="path324" d="M499-126.95l-.013,0,.013,0m-.028-.008-.011,0,.011,0m-1.244-.16h0m.086,0h0" transform="translate(9592.771 2769.377)" fill="#b0b6ce"/>
    <path id="path326" d="M485.892-123.255a3.484,3.484,0,0,0-.151-.676,3.485,3.485,0,0,0-2.332-2.248,3.39,3.39,0,0,0-.472-.1,1.5,1.5,0,0,0,.765-.632,4.263,4.263,0,0,0-1.3-.2q-.154,0-.306.011c.077-.006.154-.01.232-.012h.108a4.25,4.25,0,0,1,1.147.158l.011,0,.015,0,.013,0,.01,0a4.289,4.289,0,0,1,2.869,2.765,1.5,1.5,0,0,0-.609.927m-6.911-.067a1.509,1.509,0,0,0-.663-.714,4.288,4.288,0,0,1,2.716-2.847l.073-.025a1.5,1.5,0,0,0,.707.645,3.368,3.368,0,0,0-.519.136,3.487,3.487,0,0,0-2.208,2.317,3.391,3.391,0,0,0-.105.488" transform="translate(9608.152 2769.377)" fill="#7e848d"/>
    <path id="path328" d="M492.454-126.254a1.5,1.5,0,0,1-.707-.645,4.264,4.264,0,0,1,.99-.2q.152-.011.306-.011a4.263,4.263,0,0,1,1.3.2,1.5,1.5,0,0,1-.765.632,3.523,3.523,0,0,0-.5-.036h-.088a3.49,3.49,0,0,0-.534.053" transform="translate(9597.513 2769.368)" fill="#303240"/>
    <path id="path330" d="M514.811-111.713v0q0-.171-.025-.338a1.5,1.5,0,0,1,.609-.927h0a4.294,4.294,0,0,1,.216,1.245v0l-.8.02" transform="translate(9579.258 2758.175)" fill="#303240"/>
    <path id="path332" d="M477.494-110.968v0c0-.035,0-.071,0-.106a4.288,4.288,0,0,1,.172-1.2h0a1.508,1.508,0,0,1,.663.714,3.545,3.545,0,0,0-.032.574v0l-.8.019" transform="translate(9608.807 2757.618)" fill="#303240"/>
    <path id="path334" d="M196.508-239.549v6.483l-7.579,1.322a.9.9,0,0,1-1.118-1.126l1.473-8.067h5.835a1.392,1.392,0,0,1,1.388,1.388" transform="translate(9838.346 2859.557)" fill="#297365"/>
    <path id="path336" d="M214.979-244.3a1.393,1.393,0,0,0-1.383-1.268h-2.488l1.189-1.215h3.035a.868.868,0,0,1,.868.868v.254l-1.22,1.362" transform="translate(9819.869 2864.191)" fill="#285f83"/>
    <path id="path338" d="M190.685-232.243a.394.394,0,0,1-.307-.117.51.51,0,0,1-.068-.418l.844-4.621,3.464-3.539h2.488a1.393,1.393,0,0,1,1.383,1.269l-6.451,7.2-.887.155c-.106.017-.21.035-.307.053l-.028.005a.808.808,0,0,1-.131.011" transform="translate(9836.358 2859.557)" fill="#37a08d"/>
    <path id="path340" d="M198.133-289.579H171.169c-3.7,0-3.544,2.176-4.384,6.44h31.348v-6.44" transform="translate(9854.986 2898.098)" fill="#f9d406"/>
    <path id="path342" d="M337.9-143.554a1.541,1.541,0,0,1-1.537,1.536H319.2a1.541,1.541,0,0,1-1.537-1.536v-6.177a1.541,1.541,0,0,1,1.537-1.537h17.168a1.541,1.541,0,0,1,1.537,1.537v6.177" transform="translate(9735.444 2788.51)" fill="#add5d8"/>
    <path id="path344" d="M339.676-145.311H322.508a.67.67,0,0,1-.669-.669v-.442a.67.67,0,0,1,.669-.669h17.168a.67.67,0,0,1,.669.669v.442a.67.67,0,0,1-.669.669" transform="translate(9732.134 2785.201)" fill="#e0f0f1"/>
    <path id="path346" d="M317.815-117.426h0a1.52,1.52,0,0,1-.155-.67v-1.041c0,.015,0,.03,0,.045v1a1.52,1.52,0,0,0,.155.67" transform="translate(9735.446 2763.053)" fill="#384547"/>
    <path id="path348" d="M318.694-110.492a1.553,1.553,0,0,1-.29-.408h0a1.55,1.55,0,0,0,.289.408" transform="translate(9734.855 2756.526)" fill="#272625"/>
    <path id="path350" d="M336.366-116.561H319.2a1.533,1.533,0,0,1-1.092-.458,1.55,1.55,0,0,1-.289-.408,1.521,1.521,0,0,1-.155-.67v-1A1.542,1.542,0,0,0,319.2-117.6h17.168a1.54,1.54,0,0,0,1.535-1.536v1.041a1.54,1.54,0,0,1-1.535,1.536" transform="translate(9735.444 2763.053)" fill="#8fb1b6"/>
    <path id="path352" d="M549.04-144.844h-1.551v-4.723h1.551v4.723" transform="translate(9553.347 2787.164)" fill="#425354"/>
    <path id="path354" d="M261.387-202.07a1.318,1.318,0,0,1-1.022,1.24l-4.92.958a.827.827,0,0,1-1.022-.842v-.594a1.325,1.325,0,0,1,1.021-1.244l4.921-.977a.824.824,0,0,1,1.021.838v.62" transform="translate(9785.549 2829.933)" fill="#fab30c"/>
    <path id="path356" d="M256.827-239.22a1.384,1.384,0,0,1-.168-.742v-4.464l2.308-2.359h2.325a.868.868,0,0,1,.867.868v1.149l-4.9,5.474-.429.074" transform="translate(9783.777 2864.191)" fill="#37a08d"/>
  </g>
</svg>
